<?xml version="1.0" ?><!DOCTYPE svg  PUBLIC '-//W3C//DTD SVG 1.1//EN'  'http://www.w3.org/Graphics/SVG/1.1/DTD/svg11.dtd'><svg enable-background="new 0 0 512 512" height="512px" id="Layer_1" version="1.1" viewBox="0 0 512 512" width="512px" xml:space="preserve" xmlns="http://www.w3.org/2000/svg" xmlns:xlink="http://www.w3.org/1999/xlink"><g><path d="   M309.287,347.645c0,29.514-23.928,53.436-53.441,53.436c-29.511,0-53.437-23.922-53.437-53.436   c0-29.515,23.925-53.436,53.437-53.436C285.359,294.209,309.287,318.13,309.287,347.645z" fill="none" stroke="blue" stroke-linecap="round" stroke-linejoin="round" stroke-miterlimit="10" stroke-width="10"/><path d="   M287.604,244.791c0,26.525-14.223,48.015-31.757,48.015c-17.532,0-31.749-21.489-31.749-48.015   c0-26.528,14.217-48.018,31.749-48.018C273.381,196.773,287.604,218.263,287.604,244.791z" fill="none" stroke="blue" stroke-linecap="round" stroke-linejoin="round" stroke-miterlimit="10" stroke-width="10"/><path d="   M291.932,159.302c0,22.663-13.416,36.079-36.085,36.079c-22.668,0-36.083-13.416-36.083-36.079   c0-22.672,36.083-46.009,36.083-46.009S291.932,136.63,291.932,159.302z" fill="none" stroke="blue" stroke-linecap="round" stroke-linejoin="round" stroke-miterlimit="10" stroke-width="10"/><line fill="none" stroke="blue" stroke-linecap="round" stroke-linejoin="round" stroke-miterlimit="10" stroke-width="10" x1="203.961" x2="306.387" y1="357.205" y2="357.205"/><g><polyline fill="none" points="    218.215,309.7 144.903,331.383 169.687,440.832 106.697,496.591   " stroke="blue" stroke-linecap="round" stroke-linejoin="round" stroke-miterlimit="10" stroke-width="10"/><polyline fill="none" points="    222.746,255.993 158.728,232.253 121.554,269.428 7.972,275.623   " stroke="blue" stroke-linecap="round" stroke-linejoin="round" stroke-miterlimit="10" stroke-width="10"/><polyline fill="none" points="    226.881,218.825 180.415,191.984 165.958,150.67 91.612,126.931   " stroke="blue" stroke-linecap="round" stroke-linejoin="round" stroke-miterlimit="10" stroke-width="10"/><polyline fill="none" points="    236.172,127.97 190.988,81.962 170.445,15.409   " stroke="blue" stroke-linecap="round" stroke-linejoin="round" stroke-miterlimit="10" stroke-width="10"/></g><g><polyline fill="none" points="    293.781,309.7 367.096,331.383 342.314,440.832 405.303,496.591   " stroke="blue" stroke-linecap="round" stroke-linejoin="round" stroke-miterlimit="10" stroke-width="10"/><polyline fill="none" points="    289.254,255.993 353.277,232.253 390.443,269.428 504.027,275.623   " stroke="blue" stroke-linecap="round" stroke-linejoin="round" stroke-miterlimit="10" stroke-width="10"/><polyline fill="none" points="    285.121,218.825 331.592,191.984 346.043,150.67 420.387,126.931   " stroke="blue" stroke-linecap="round" stroke-linejoin="round" stroke-miterlimit="10" stroke-width="10"/><polyline fill="none" points="    275.824,127.97 321.008,81.962 341.547,15.409   " stroke="blue" stroke-linecap="round" stroke-linejoin="round" stroke-miterlimit="10" stroke-width="10"/></g></g></svg>