<?xml version="1.0" ?><!DOCTYPE svg  PUBLIC '-//W3C//DTD SVG 1.1//EN'  'http://www.w3.org/Graphics/SVG/1.1/DTD/svg11.dtd'><svg enable-background="new 0 0 512 512" height="512px" id="Layer_1" version="1.1" viewBox="0 0 512 512" width="512px" xml:space="preserve" xmlns="http://www.w3.org/2000/svg" xmlns:xlink="http://www.w3.org/1999/xlink"><g><g><polyline fill="none" points="    144.188,255.155 96.86,261.244 66.576,306.623 8.634,329.176   " stroke="#000000" stroke-linecap="round" stroke-linejoin="round" stroke-miterlimit="10" stroke-width="10"/><polyline fill="none" points="    144.213,322.127 84.196,350.425 82.482,433.591 17.321,464.456   " stroke="#000000" stroke-linecap="round" stroke-linejoin="round" stroke-miterlimit="10" stroke-width="10"/><polyline fill="none" points="    144.647,216.867 100.485,178.947 93.628,140.365 50.756,115.497   " stroke="#000000" stroke-linecap="round" stroke-linejoin="round" stroke-miterlimit="10" stroke-width="10"/></g><g><polyline fill="none" points="    367.805,255.155 415.135,261.244 445.419,306.623 503.366,329.176   " stroke="#000000" stroke-linecap="round" stroke-linejoin="round" stroke-miterlimit="10" stroke-width="10"/><polyline fill="none" points="    367.781,322.127 427.803,350.425 429.513,433.591 494.679,464.456   " stroke="#000000" stroke-linecap="round" stroke-linejoin="round" stroke-miterlimit="10" stroke-width="10"/><polyline fill="none" points="    369.282,203.227 411.509,178.947 418.378,140.365 461.24,115.497   " stroke="#000000" stroke-linecap="round" stroke-linejoin="round" stroke-miterlimit="10" stroke-width="10"/></g><path d="   M187.638,154.284c0-37.53,30.423-67.951,67.952-67.951l0,0c37.529,0,67.954,30.421,67.954,67.951" fill="none" stroke="#000000" stroke-linecap="round" stroke-linejoin="round" stroke-miterlimit="10" stroke-width="10"/><path d="   M367.83,169.851v171.787c0,50.607-41.022,91.627-91.625,91.627h-39.704c-50.599,0-91.621-41.02-91.621-91.627V169.851   c0,0,32.067-21.377,110.71-21.377C334.231,148.474,367.83,169.851,367.83,169.851z" fill="none" stroke="#000000" stroke-linecap="round" stroke-linejoin="round" stroke-miterlimit="10" stroke-width="10"/><path d="   M255.59,148.474c0,0,0,185.533,0,246.618c0,12.142,0,37.409,29.012,37.409" fill="none" stroke="#000000" stroke-linecap="round" stroke-linejoin="round" stroke-miterlimit="10" stroke-width="10"/><path d="   M255.206,401.199c0,0,1.53,31.685-23.283,31.685" fill="none" stroke="#000000" stroke-linecap="round" stroke-linejoin="round" stroke-miterlimit="10" stroke-width="10"/><g><line fill="none" stroke="#000000" stroke-linecap="round" stroke-linejoin="round" stroke-miterlimit="10" stroke-width="10" x1="297.585" x2="349.504" y1="100.225" y2="47.544"/><line fill="none" stroke="#000000" stroke-linecap="round" stroke-linejoin="round" stroke-miterlimit="10" stroke-width="10" x1="213.598" x2="161.68" y1="100.225" y2="47.544"/></g></g></svg>