<?xml version="1.0" ?><!DOCTYPE svg  PUBLIC '-//W3C//DTD SVG 1.1//EN'  'http://www.w3.org/Graphics/SVG/1.1/DTD/svg11.dtd'><svg enable-background="new 0 0 512 512" height="512px" id="Layer_1" version="1.1" viewBox="0 0 512 512" width="512px" xml:space="preserve" xmlns="http://www.w3.org/2000/svg" xmlns:xlink="http://www.w3.org/1999/xlink"><g><path d="   M172.305,409.572c51.771,28.959,74.14-93.399,74.14-93.399S111.107,375.335,172.305,409.572z" fill="none" stroke="#1A1A1A" stroke-linecap="round" stroke-linejoin="round" stroke-miterlimit="10" stroke-width="10"/><path d="M246.09,286.968   C220.964,227.236,143.77,67.515,49.932,104.053c-112.878,43.97,29.189,279.019,195.882,208.726" fill="none" stroke="#1A1A1A" stroke-miterlimit="10" stroke-width="10"/><path d="   M344.269,409.854c-51.612,29.266-74.702-92.947-74.702-92.947S405.262,375.253,344.269,409.854z" fill="none" stroke="#1A1A1A" stroke-linecap="round" stroke-linejoin="round" stroke-miterlimit="10" stroke-width="10"/><path d="M268.914,281.083   c27.05-63.759,101.451-213.127,192.601-178.257c112.696,43.128-25.247,276.209-191.435,209.667" fill="none" stroke="#1A1A1A" stroke-miterlimit="10" stroke-width="10"/><path d="M269.787,252.639   c-0.024-7.648-5.417-13.82-12.041-13.783c-6.639,0.004-11.994,6.212-11.974,13.856c0.016,4.205,1.663,7.956,4.241,10.494   c-2.562,4.349-4.176,13.852-4.116,34.771c0.127,37.925,5.686,98.936,12.297,98.919c6.652-0.021,11.849-61.06,11.728-98.991   c-0.049-20.904-1.726-30.424-4.309-34.747C268.188,260.616,269.803,256.839,269.787,252.639z" fill="none" stroke="#1A1A1A" stroke-miterlimit="10" stroke-width="10"/><g><path d="    M262.184,238.689c0,0,3.891-30.717,23.339-44.333" fill="none" stroke="#1A1A1A" stroke-linecap="round" stroke-linejoin="round" stroke-miterlimit="10" stroke-width="10"/><path d="    M254.802,238.689c0,0-3.891-30.717-23.339-44.333" fill="none" stroke="#1A1A1A" stroke-linecap="round" stroke-linejoin="round" stroke-miterlimit="10" stroke-width="10"/></g></g></svg>