<?xml version="1.0" ?><!DOCTYPE svg  PUBLIC '-//W3C//DTD SVG 1.1//EN'  'http://www.w3.org/Graphics/SVG/1.1/DTD/svg11.dtd'><svg enable-background="new 0 0 512 512" height="512px" id="Layer_1" version="1.1" viewBox="0 0 512 512" width="512px" xml:space="preserve" xmlns="http://www.w3.org/2000/svg" xmlns:xlink="http://www.w3.org/1999/xlink"><g><g><g><polyline fill="none" points="     179.219,212.725 150.939,218.311 99.711,210.115    " stroke="#000000" stroke-linecap="round" stroke-linejoin="round" stroke-width="10"/></g><g><g><polyline fill="none" points="      98.338,468.544 134.296,439.782 124.697,402.316 174.863,360.626     " stroke="#000000" stroke-linecap="round" stroke-linejoin="round" stroke-width="10"/></g></g><g><polyline fill="none" points="     336.018,212.725 361.064,218.311 412.287,210.115    " stroke="#000000" stroke-linecap="round" stroke-linejoin="round" stroke-width="10"/></g><g><polyline fill="none" points="     402.688,85.521 352.711,106.115 342.152,175.133 326.305,176.994    " stroke="#000000" stroke-linecap="round" stroke-linejoin="round" stroke-width="10"/></g><g><polyline fill="none" points="118.6,85.521      168.571,106.115 179.133,175.133 188.25,176.209    " stroke="#000000" stroke-linecap="round" stroke-linejoin="round" stroke-width="10"/></g><g><g><polyline fill="none" points="      413.662,468.544 377.715,439.782 387.303,402.316 339.49,362.936     " stroke="#000000" stroke-linecap="round" stroke-linejoin="round" stroke-width="10"/></g></g><g><line fill="none" stroke="#000000" stroke-linecap="round" stroke-linejoin="round" stroke-miterlimit="10" stroke-width="10" x1="286.068" x2="325.973" y1="107.774" y2="9.429"/><line fill="none" stroke="#000000" stroke-linecap="round" stroke-linejoin="round" stroke-miterlimit="10" stroke-width="10" x1="229.055" x2="189.15" y1="107.774" y2="9.429"/></g></g><path d="M344.67,300.174   c0,111.789-39,202.397-87.113,202.397c-48.101,0-87.104-90.608-87.104-202.397c0-111.768,39.003-202.373,87.104-202.373   C305.67,97.801,344.67,188.406,344.67,300.174z" fill="none" stroke="#000000" stroke-miterlimit="10" stroke-width="10"/><path d="M329.43,186.016c0,0-10.885-22.901-32.271-22.901   c-10.766,0-22.799,9.923-39.658,9.923c-16.854,0-28.897-9.923-39.653-9.923c-21.396,0-32.386,22.901-32.386,22.901" fill="none" stroke="#000000" stroke-miterlimit="10" stroke-width="10"/><path d="M301.527,472.144   c-50.918-83.579-43.441-297.833-43.441-297.833s7.48,214.253-43.446,297.833" fill="none" stroke="#000000" stroke-miterlimit="10" stroke-width="10"/></g></svg>