<?xml version="1.0" ?><!DOCTYPE svg  PUBLIC '-//W3C//DTD SVG 1.1//EN'  'http://www.w3.org/Graphics/SVG/1.1/DTD/svg11.dtd'><svg enable-background="new 0 0 512 512" height="512px" id="Layer_1" version="1.1" viewBox="0 0 512 512" width="512px" xml:space="preserve" xmlns="http://www.w3.org/2000/svg" xmlns:xlink="http://www.w3.org/1999/xlink"><g><g><g><polyline fill="none" points="     220.431,179.358 180.158,188.347 143.266,182.446    " stroke="#000000" stroke-linecap="round" stroke-linejoin="round" stroke-miterlimit="10" stroke-width="10"/><polyline fill="none" points="     143.256,65.609 185.57,94.955 181.352,161.327 223.792,175.999    " stroke="#000000" stroke-linecap="round" stroke-linejoin="round" stroke-miterlimit="10" stroke-width="10"/><g><polyline fill="none" points="      142.275,368.589 168.168,347.87 161.264,320.884 195.715,290.855     " stroke="#000000" stroke-linecap="round" stroke-linejoin="round" stroke-miterlimit="10" stroke-width="10"/></g><polyline fill="none" points="     291.236,179.358 331.512,188.347 368.402,182.446    " stroke="#000000" stroke-linecap="round" stroke-linejoin="round" stroke-miterlimit="10" stroke-width="10"/><polyline fill="none" points="     368.411,65.609 326.1,94.955 330.319,161.327 287.876,175.999    " stroke="#000000" stroke-linecap="round" stroke-linejoin="round" stroke-miterlimit="10" stroke-width="10"/><g><polyline fill="none" points="      369.395,368.589 343.502,347.87 350.407,320.884 315.952,290.855     " stroke="#000000" stroke-linecap="round" stroke-linejoin="round" stroke-miterlimit="10" stroke-width="10"/></g></g><path d="M213.089,196.903c0,0-43.529-1.088-130.099,8.126    c-172.134,18.316,3.695,132.639,67.474,89.701C160.091,288.253,200.939,234.181,213.089,196.903z" fill="none" stroke="#000000" stroke-miterlimit="10" stroke-width="10"/><path d="M298.911,196.903c0,0,43.529-1.088,130.101,8.126    c172.132,18.316-3.695,132.639-67.476,89.701C351.91,288.253,311.06,234.181,298.911,196.903z" fill="none" stroke="#000000" stroke-miterlimit="10" stroke-width="10"/></g><path d="M284.563,169.104   c9.308-3.989,15.821-13.23,15.821-23.996c0-14.412-11.683-26.094-26.092-26.094c-7.098,0-13.523,2.841-18.228,7.437   c-4.705-4.596-11.129-7.437-18.226-7.437c-14.412,0-26.095,11.682-26.095,26.094c0,10.752,6.504,19.984,15.793,23.979" fill="none" stroke="#000000" stroke-miterlimit="10" stroke-width="10"/><path d="M196.271,299.534   c0,81.115,26.628,146.856,59.475,146.856c32.848,0,59.475-65.741,59.475-146.856c0-81.109-26.627-146.863-59.475-146.863   C222.899,152.671,196.271,218.425,196.271,299.534z" fill="none" stroke="#000000" stroke-miterlimit="10" stroke-width="10"/></g></svg>