<?xml version="1.0" ?><!DOCTYPE svg  PUBLIC '-//W3C//DTD SVG 1.1//EN'  'http://www.w3.org/Graphics/SVG/1.1/DTD/svg11.dtd'><svg enable-background="new 0 0 512 512" height="512px" id="Layer_1" version="1.1" viewBox="0 0 512 512" width="512px" xml:space="preserve" xmlns="http://www.w3.org/2000/svg" xmlns:xlink="http://www.w3.org/1999/xlink"><g><g><polyline fill="none" points="    357.425,182.5 391.192,153.109 430.852,153.109   " stroke="yellow" stroke-linecap="round" stroke-linejoin="round" stroke-miterlimit="10" stroke-width="10"/><polyline fill="none" points="    155.504,180.283 124.693,153.109 85.034,153.109   " stroke="yellow" stroke-linecap="round" stroke-linejoin="round" stroke-miterlimit="10" stroke-width="10"/></g><g><path d="M212.637,52.655    c-18.49,0-33.54,15.049-33.54,33.527c0,18.501,15.05,33.551,33.54,33.551s33.537-15.05,33.537-33.551    C246.174,67.705,231.127,52.655,212.637,52.655z" fill="none" stroke="yellow" stroke-miterlimit="10" stroke-width="10"/><path d="M298.289,52.655    c-18.489,0-33.539,15.049-33.539,33.527c0,18.501,15.05,33.551,33.539,33.551c18.49,0,33.54-15.05,33.54-33.551    C331.829,67.705,316.779,52.655,298.289,52.655z" fill="none" stroke="yellow" stroke-miterlimit="10" stroke-width="10"/></g><path d="   M309.975,117.442c0.139,1.608,0.212,3.234,0.212,4.875v23.064" fill="none" stroke="yellow" stroke-linecap="round" stroke-linejoin="round" stroke-miterlimit="10" stroke-width="10"/><path d="   M239.136,66.81c4.435-1.104,9.076-1.69,13.852-1.69l0,0c6.185,0,12.142,0.984,17.724,2.8" fill="none" stroke="yellow" stroke-linecap="round" stroke-linejoin="round" stroke-miterlimit="10" stroke-width="10"/><path d="   M195.794,151.205v-28.887c0-2.512,0.162-4.985,0.476-7.412" fill="none" stroke="yellow" stroke-linecap="round" stroke-linejoin="round" stroke-miterlimit="10" stroke-width="10"/><path d="M191.881,155.727   c17.27-24.837,39.427-1.366,63.588-1.366c22.229,0,42.749-25.791,59.337-4.417c2.531,3.259,4.97,5.794,7.31,9.277" fill="none" stroke="yellow" stroke-miterlimit="10" stroke-width="10"/><path d="M337.313,354.708   c-28.721,62.166-81.845,108.28-81.845,108.28s-52.798-45.717-81.422-108.322" fill="none" stroke="yellow" stroke-miterlimit="10" stroke-width="10"/><g><line fill="none" stroke="yellow" stroke-linecap="round" stroke-linejoin="round" stroke-miterlimit="10" stroke-width="10" x1="268.407" x2="283.229" y1="67.136" y2="8.63"/><line fill="none" stroke="yellow" stroke-linecap="round" stroke-linejoin="round" stroke-miterlimit="10" stroke-width="10" x1="241.105" x2="224.975" y1="66.355" y2="8.59"/></g><line fill="none" stroke="yellow" stroke-linecap="round" stroke-linejoin="round" stroke-miterlimit="10" stroke-width="10" x1="185.932" x2="324.499" y1="374.994" y2="374.994"/><line fill="none" stroke="yellow" stroke-linecap="round" stroke-linejoin="round" stroke-miterlimit="10" stroke-width="10" x1="216.42" x2="294.013" y1="419.614" y2="419.614"/><line fill="none" stroke="yellow" stroke-linecap="round" stroke-linejoin="round" stroke-miterlimit="10" stroke-width="10" x1="200.021" x2="312.871" y1="335.325" y2="335.325"/><g><polyline fill="none" points="    369.556,379.078 357.102,430.77 373.217,461.754   " stroke="yellow" stroke-linecap="round" stroke-linejoin="round" stroke-miterlimit="10" stroke-width="10"/><polyline fill="none" points="    141.429,379.915 153.83,430.77 137.715,461.754   " stroke="yellow" stroke-linecap="round" stroke-linejoin="round" stroke-miterlimit="10" stroke-width="10"/></g><path d="M191.881,155.727   c0,0-111.793,44.505-129.15,249.018c0,0,117.74-12.404,161.126-109.085C267.241,198.981,191.881,155.727,191.881,155.727z" fill="none" stroke="yellow" stroke-miterlimit="10" stroke-width="10"/><path d="M319.372,156.323   c0,0,112.542,43.908,129.897,248.421c0,0-117.741-12.404-161.125-109.085C244.758,198.984,319.377,156.319,319.372,156.323z" fill="none" stroke="yellow" stroke-miterlimit="10" stroke-width="10"/><line fill="none" stroke="yellow" stroke-linecap="round" stroke-linejoin="round" stroke-miterlimit="10" stroke-width="10" x1="255.469" x2="255.469" y1="462.988" y2="503.41"/></g></svg>