<?xml version="1.0" ?><!DOCTYPE svg  PUBLIC '-//W3C//DTD SVG 1.1//EN'  'http://www.w3.org/Graphics/SVG/1.1/DTD/svg11.dtd'><svg enable-background="new 0 0 512 512" height="512px" id="Layer_1" version="1.1" viewBox="0 0 512 512" width="512px" xml:space="preserve" xmlns="http://www.w3.org/2000/svg" xmlns:xlink="http://www.w3.org/1999/xlink"><g><path d="M163.47,120.148   c13.584-40.488,49.883-69.465,92.527-69.465c43.049,0,79.632,29.523,92.916,70.619" fill="none" stroke="#000000" stroke-miterlimit="10" stroke-width="10"/><path d="M442.066,293.442   c0,109.553-83.309,198.373-186.069,198.373c-102.755,0-186.059-88.82-186.059-198.373c0-109.569,83.304-198.386,186.059-198.386   C358.758,95.057,442.066,183.873,442.066,293.442z" fill="none" stroke="#000000" stroke-miterlimit="10" stroke-width="10"/><g><line fill="none" stroke="#000000" stroke-linecap="round" stroke-linejoin="round" stroke-miterlimit="10" stroke-width="10" x1="305.139" x2="332.539" y1="62.955" y2="20.185"/><line fill="none" stroke="#000000" stroke-linecap="round" stroke-linejoin="round" stroke-miterlimit="10" stroke-width="10" x1="206.866" x2="179.464" y1="62.955" y2="20.185"/></g><line fill="none" stroke="#000000" stroke-miterlimit="10" stroke-width="10" x1="255.997" x2="255.997" y1="491.815" y2="94.436"/><g><path d="M221.808,214.572    c0,21.428-17.38,38.815-38.815,38.815c-21.437,0-38.812-17.388-38.812-38.815c0-21.429,17.375-38.813,38.812-38.813    C204.428,175.76,221.808,193.144,221.808,214.572z" fill="none" stroke="#000000" stroke-miterlimit="10" stroke-width="10"/><path d="M195.933,360.587    c0,17.357-14.064,31.424-31.421,31.424c-17.357,0-31.421-14.066-31.421-31.424c0-17.354,14.063-31.419,31.421-31.419    C181.868,329.168,195.933,343.232,195.933,360.587z" fill="none" stroke="#000000" stroke-miterlimit="10" stroke-width="10"/><path d="M290.193,214.572    c0,21.428,17.385,38.815,38.812,38.815c21.436,0,38.815-17.388,38.815-38.815c0-21.429-17.38-38.813-38.815-38.813    C307.578,175.76,290.193,193.144,290.193,214.572z" fill="none" stroke="#000000" stroke-miterlimit="10" stroke-width="10"/><path d="M316.074,360.587    c0,17.357,14.06,31.424,31.413,31.424c17.356,0,31.425-14.066,31.425-31.424c0-17.354-14.068-31.419-31.425-31.419    C330.134,329.168,316.074,343.232,316.074,360.587z" fill="none" stroke="#000000" stroke-miterlimit="10" stroke-width="10"/></g><g><line fill="none" stroke="#000000" stroke-linecap="round" stroke-linejoin="round" stroke-miterlimit="10" stroke-width="10" x1="7.719" x2="66.863" y1="293.442" y2="293.442"/><line fill="none" stroke="#000000" stroke-linecap="round" stroke-linejoin="round" stroke-miterlimit="10" stroke-width="10" x1="119.231" x2="80.439" y1="156.654" y2="117.871"/><line fill="none" stroke="#000000" stroke-linecap="round" stroke-linejoin="round" stroke-miterlimit="10" stroke-width="10" x1="431.566" x2="392.783" y1="117.871" y2="156.671"/><line fill="none" stroke="#000000" stroke-linecap="round" stroke-linejoin="round" stroke-miterlimit="10" stroke-width="10" x1="445.143" x2="504.281" y1="293.442" y2="293.442"/><line fill="none" stroke="#000000" stroke-linecap="round" stroke-linejoin="round" stroke-miterlimit="10" stroke-width="10" x1="119.231" x2="80.439" y1="430.214" y2="468.997"/><line fill="none" stroke="#000000" stroke-linecap="round" stroke-linejoin="round" stroke-miterlimit="10" stroke-width="10" x1="431.566" x2="392.783" y1="468.997" y2="430.214"/></g></g></svg>