<?xml version="1.0" ?><!DOCTYPE svg  PUBLIC '-//W3C//DTD SVG 1.1//EN'  'http://www.w3.org/Graphics/SVG/1.1/DTD/svg11.dtd'><svg enable-background="new 0 0 512 512" height="512px" id="Layer_1" version="1.1" viewBox="0 0 512 512" width="512px" xml:space="preserve" xmlns="http://www.w3.org/2000/svg" xmlns:xlink="http://www.w3.org/1999/xlink"><g><polyline fill="none" points="231.419,290.692    177.875,332.982 202.592,391.921 170.275,469.851  " stroke="#000000" stroke-linecap="round" stroke-miterlimit="10" stroke-width="10"/><polyline fill="none" points="281.935,293.991    331.085,332.982 306.377,391.921 338.689,469.851  " stroke="#000000" stroke-linecap="round" stroke-miterlimit="10" stroke-width="10"/><polyline fill="none" points="233.85,271.598    138.109,315.875 152.841,391.067 126.554,437.535  " stroke="#000000" stroke-linecap="round" stroke-miterlimit="10" stroke-width="10"/><polyline fill="none" points="279.504,273.504    370.86,315.875 356.125,391.067 382.411,437.535  " stroke="#000000" stroke-linecap="round" stroke-miterlimit="10" stroke-width="10"/><path d="M282.999,322.531   c0,54.063-11.913,97.898-26.616,97.898c-14.7,0-26.609-43.835-26.609-97.898c0-54.061,11.909-97.89,26.609-97.89   C271.086,224.642,282.999,268.471,282.999,322.531z" fill="none" stroke="#000000" stroke-miterlimit="10" stroke-width="10"/><path d="M277.287,204.835   c0,12.251-9.354,19.807-20.904,19.807c-11.547,0-20.9-7.556-20.9-19.807c0-12.249,9.353-22.189,20.9-22.189   C267.934,182.646,277.287,192.586,277.287,204.835z" fill="none" stroke="#000000" stroke-miterlimit="10" stroke-width="10"/><path d="M241.74,231.11c0,0-157.088,98.073-184.384,98.073   c-27.299,0-49.421-22.126-49.421-49.424c0-27.297,22.122-49.422,49.421-49.422C84.652,230.338,241.74,231.11,241.74,231.11z" fill="none" stroke="#000000" stroke-miterlimit="10" stroke-width="10"/><path d="M270.252,231.11   c0,0,157.099,98.073,184.385,98.073c27.303,0,49.429-22.126,49.429-49.424c0-27.297-22.126-49.422-49.429-49.422   C427.351,230.338,270.252,231.11,270.252,231.11z" fill="none" stroke="#000000" stroke-miterlimit="10" stroke-width="10"/><line fill="none" stroke="#000000" stroke-linecap="round" stroke-miterlimit="10" stroke-width="10" x1="256.383" x2="256.383" y1="182.646" y2="59.259"/><polyline fill="none" points="241.74,231.11    177.875,179.012 202.592,120.084 170.275,42.149  " stroke="#000000" stroke-linecap="round" stroke-miterlimit="10" stroke-width="10"/><polyline fill="none" points="270.252,231.11    334.423,179.012 309.713,120.084 342.025,42.149  " stroke="#000000" stroke-linecap="round" stroke-miterlimit="10" stroke-width="10"/></g></svg>