<?xml version="1.0" ?><!DOCTYPE svg  PUBLIC '-//W3C//DTD SVG 1.1//EN'  'http://www.w3.org/Graphics/SVG/1.1/DTD/svg11.dtd'><svg enable-background="new 0 0 512 512" height="512px" id="Layer_1" version="1.1" viewBox="0 0 512 512" width="512px" xml:space="preserve" xmlns="http://www.w3.org/2000/svg" xmlns:xlink="http://www.w3.org/1999/xlink"><g><path d="M229.571,178.712   c-2.778-4.635-4.37-10.044-4.37-15.833c0-17.028,13.806-30.844,30.843-30.844c17.038,0,30.85,13.815,30.85,30.844   c0,6.063-1.755,11.71-4.763,16.472" fill="none" stroke="brown" stroke-miterlimit="10" stroke-width="10"/><path d="M329.527,247.629   c0,40.585-32.895,73.492-73.483,73.492c-40.589,0-73.489-32.907-73.489-73.492s32.9-73.488,73.489-73.488   C296.633,174.141,329.527,207.044,329.527,247.629z" fill="none" stroke="brown" stroke-miterlimit="10" stroke-width="10"/><line fill="none" stroke="brown" stroke-linecap="round" stroke-linejoin="round" stroke-miterlimit="10" stroke-width="10" x1="256.044" x2="256.044" y1="324.754" y2="359.238"/><g><line fill="none" stroke="brown" stroke-linecap="round" stroke-linejoin="round" stroke-miterlimit="10" stroke-width="10" x1="268.967" x2="279.176" y1="129.929" y2="113.599"/><line fill="none" stroke="brown" stroke-linecap="round" stroke-linejoin="round" stroke-miterlimit="10" stroke-width="10" x1="243.117" x2="232.906" y1="129.929" y2="113.599"/></g><g><polyline fill="none" points="    201.038,194.921 161.683,145.707 39.2,89.46   " stroke="brown" stroke-linecap="round" stroke-linejoin="round" stroke-miterlimit="10" stroke-width="10"/><polyline fill="none" points="    187.628,217.395 98.708,187.45 8.888,219.197   " stroke="brown" stroke-linecap="round" stroke-linejoin="round" stroke-miterlimit="10" stroke-width="10"/><polyline fill="none" points="    181.876,244.339 117.461,240.711 50.326,332.345   " stroke="brown" stroke-linecap="round" stroke-linejoin="round" stroke-miterlimit="10" stroke-width="10"/><polyline fill="none" points="    186.338,276.11 137.917,291.88 164.225,422.54   " stroke="brown" stroke-linecap="round" stroke-linejoin="round" stroke-miterlimit="10" stroke-width="10"/></g><g><polyline fill="none" points="    310.957,194.921 350.313,145.707 472.795,89.46   " stroke="brown" stroke-linecap="round" stroke-linejoin="round" stroke-miterlimit="10" stroke-width="10"/><polyline fill="none" points="    324.366,217.395 413.29,187.45 503.112,219.197   " stroke="brown" stroke-linecap="round" stroke-linejoin="round" stroke-miterlimit="10" stroke-width="10"/><polyline fill="none" points="    330.121,244.339 394.532,240.711 461.674,332.345   " stroke="brown" stroke-linecap="round" stroke-linejoin="round" stroke-miterlimit="10" stroke-width="10"/><polyline fill="none" points="    325.657,276.11 374.083,291.88 347.771,422.54   " stroke="brown" stroke-linecap="round" stroke-linejoin="round" stroke-miterlimit="10" stroke-width="10"/></g></g></svg>